<?xml version="1.0" encoding="UTF-8"?>
<svg xmlns="http://www.w3.org/2000/svg" xmlns:xlink="http://www.w3.org/1999/xlink" width="142.075" height="15.093" viewBox="0 0 142.075 15.093">
<defs>
<clipPath id="clip-0">
<path clip-rule="nonzero" d="M 0 0 L 142.074219 0 L 142.074219 15.09375 L 0 15.09375 Z M 0 0 "/>
</clipPath>
<clipPath id="clip-1">
<path clip-rule="nonzero" d="M 99 0 L 113 0 L 113 15.09375 L 99 15.09375 Z M 99 0 "/>
</clipPath>
<clipPath id="clip-2">
<path clip-rule="nonzero" d="M 79 0 L 91 0 L 91 15.09375 L 79 15.09375 Z M 79 0 "/>
</clipPath>
<clipPath id="clip-3">
<path clip-rule="nonzero" d="M 64 0 L 77 0 L 77 15.09375 L 64 15.09375 Z M 64 0 "/>
</clipPath>
<clipPath id="clip-4">
<path clip-rule="nonzero" d="M 44 0 L 61 0 L 61 15.09375 L 44 15.09375 Z M 44 0 "/>
</clipPath>
<clipPath id="clip-5">
<path clip-rule="nonzero" d="M 27 0 L 44 0 L 44 15.09375 L 27 15.09375 Z M 27 0 "/>
</clipPath>
<clipPath id="clip-6">
<path clip-rule="nonzero" d="M 15 0 L 28 0 L 28 15.09375 L 15 15.09375 Z M 15 0 "/>
</clipPath>
<clipPath id="clip-7">
<path clip-rule="nonzero" d="M 0 0 L 14 0 L 14 15.09375 L 0 15.09375 Z M 0 0 "/>
</clipPath>
<clipPath id="clip-8">
<path clip-rule="nonzero" d="M 0 1 L 142.074219 1 L 142.074219 15.09375 L 0 15.09375 Z M 0 1 "/>
</clipPath>
</defs>
<g clip-path="url(#clip-0)">
<path fill="none" stroke-width="0.3985" stroke-linecap="butt" stroke-linejoin="miter" stroke="rgb(0%, 0%, 0%)" stroke-opacity="1" stroke-miterlimit="10" d="M 141.73 0.00090625 L 104.73 6.981375 L 84.772969 9.723562 L 70.819844 11.075125 L 50.32375 12.047781 L 37.706562 11.848562 L 21.468281 10.180594 L 6.413594 5.782156 L 0.0542187 -0.3155 L 7.784688 -2.319406 L 21.222188 -2.647531 L 33.194844 -2.405344 L 54.374531 -1.631906 L 69.69875 -0.960031 L 85.19875 -0.268625 L 107.194844 0.536062 Z M 141.73 0.00090625 " transform="matrix(1, 0, 0, -1, 0.145, 12.247)"/>
</g>
<g clip-path="url(#clip-1)">
<path fill="none" stroke-width="0.3985" stroke-linecap="butt" stroke-linejoin="miter" stroke="rgb(0%, 0%, 0%)" stroke-opacity="1" stroke-miterlimit="10" d="M 104.73 6.981375 L 107.194844 0.536062 " transform="matrix(1, 0, 0, -1, 0.145, 12.247)"/>
</g>
<g clip-path="url(#clip-2)">
<path fill="none" stroke-width="0.3985" stroke-linecap="butt" stroke-linejoin="miter" stroke="rgb(0%, 0%, 0%)" stroke-opacity="1" stroke-miterlimit="10" d="M 84.772969 9.723562 L 85.19875 -0.268625 " transform="matrix(1, 0, 0, -1, 0.145, 12.247)"/>
</g>
<g clip-path="url(#clip-3)">
<path fill="none" stroke-width="0.3985" stroke-linecap="butt" stroke-linejoin="miter" stroke="rgb(0%, 0%, 0%)" stroke-opacity="1" stroke-miterlimit="10" d="M 70.819844 11.075125 L 69.69875 -0.960031 " transform="matrix(1, 0, 0, -1, 0.145, 12.247)"/>
</g>
<g clip-path="url(#clip-4)">
<path fill="none" stroke-width="0.3985" stroke-linecap="butt" stroke-linejoin="miter" stroke="rgb(0%, 0%, 0%)" stroke-opacity="1" stroke-miterlimit="10" d="M 50.32375 12.047781 L 54.374531 -1.631906 " transform="matrix(1, 0, 0, -1, 0.145, 12.247)"/>
</g>
<g clip-path="url(#clip-5)">
<path fill="none" stroke-width="0.3985" stroke-linecap="butt" stroke-linejoin="miter" stroke="rgb(0%, 0%, 0%)" stroke-opacity="1" stroke-miterlimit="10" d="M 37.706562 11.848562 L 33.194844 -2.405344 " transform="matrix(1, 0, 0, -1, 0.145, 12.247)"/>
</g>
<g clip-path="url(#clip-6)">
<path fill="none" stroke-width="0.3985" stroke-linecap="butt" stroke-linejoin="miter" stroke="rgb(0%, 0%, 0%)" stroke-opacity="1" stroke-miterlimit="10" d="M 21.468281 10.180594 L 21.222188 -2.647531 " transform="matrix(1, 0, 0, -1, 0.145, 12.247)"/>
</g>
<g clip-path="url(#clip-7)">
<path fill="none" stroke-width="0.3985" stroke-linecap="butt" stroke-linejoin="miter" stroke="rgb(0%, 0%, 0%)" stroke-opacity="1" stroke-miterlimit="10" d="M 6.413594 5.782156 L 7.784688 -2.319406 " transform="matrix(1, 0, 0, -1, 0.145, 12.247)"/>
</g>
<g clip-path="url(#clip-8)">
<path fill="none" stroke-width="0.3985" stroke-linecap="butt" stroke-linejoin="miter" stroke="rgb(0%, 0%, 0%)" stroke-opacity="1" stroke-dasharray="2.98883 2.98883" stroke-miterlimit="10" d="M 0.0542187 -0.3155 L 7.097188 1.731375 L 21.343281 3.766531 L 35.44875 4.719656 L 52.347187 5.207937 L 70.257344 5.0595 L 84.983906 4.727469 L 105.964375 3.758719 L 141.73 0.00090625 " transform="matrix(1, 0, 0, -1, 0.145, 12.247)"/>
</g>
</svg>
